<svg version="1.1" xmlns="http://www.w3.org/2000/svg" viewBox="0 0 193.5731242712809 174.44469129211666" width="580.7193728138427" height="523.33407387635">
  <!-- svg-source:excalidraw -->
  
  <defs>
    <style class="style-fonts">
      @font-face {
        font-family: "Virgil";
        src: url("https://excalidraw.com/Virgil.woff2");
      }
      @font-face {
        font-family: "Cascadia";
        src: url("https://excalidraw.com/Cascadia.woff2");
      }
      @font-face {
        font-family: "Assistant";
        src: url("https://excalidraw.com/Assistant-Regular.woff2");
      }
    </style>
    
  </defs>
  <g stroke-linecap="round" transform="translate(10 10) rotate(0 86.78656213564045 77.22234564605833)"><path d="M-0.63 -1.57 C71.69 1.47, 132.36 0.29, 173.9 2.9 M-0.34 -1.02 C50.01 -0.11, 102.13 0.8, 174.86 -1.11 M173.08 -2.79 C171.32 50.09, 170.73 102.37, 177.46 157.96 M175.5 1.02 C170.01 58.99, 172.68 119.94, 174.31 154.32 M173.15 158.15 C127.01 156.8, 79.69 155.58, 3.15 153.86 M174.62 155.95 C137.93 152.42, 100.5 155, -0.34 155.73 M3.68 155.75 C-4.04 102.49, -2.96 50.27, -1.47 2.11 M-0.62 156.43 C1.7 111.17, 4.47 63.56, 0.17 -0.82" stroke="#1e1e1e" stroke-width="2" fill="none"></path></g></svg>