<svg version="1.1" xmlns="http://www.w3.org/2000/svg" viewBox="0 0 270.79509234656234 231.69508114521386" width="541.5901846931247" height="463.3901622904277">
  <!-- svg-source:excalidraw -->
  
  <defs>
    <style class="style-fonts">
      @font-face {
        font-family: "Virgil";
        src: url("https://excalidraw.com/Virgil.woff2");
      }
      @font-face {
        font-family: "Cascadia";
        src: url("https://excalidraw.com/Cascadia.woff2");
      }
    </style>
    
  </defs>
  <g stroke-linecap="round"><g transform="translate(241.11226633358956 105.96744802932903) rotate(0 -42.345417541280085 45.54658182483399)" fill-rule="evenodd"><path d="M0 0 C-2.18 1.2, -9.05 6.87, -13.09 7.2 C-17.13 7.53, -22.25 5.13, -24.22 1.96 C-26.18 -1.2, -21.6 -9.27, -24.87 -11.78 C-28.15 -14.29, -39.93 -14.84, -43.86 -13.09 C-47.78 -11.35, -45.82 -3.82, -48.44 -1.31 C-51.06 1.2, -55.96 2.73, -59.56 1.96 C-63.16 1.2, -65.67 -5.35, -70.04 -5.89 C-74.4 -6.44, -83.78 -5.13, -85.75 -1.31 C-87.71 2.51, -81.49 12.44, -81.82 17.02 C-82.15 21.6, -84.22 24.76, -87.71 26.18 C-91.2 27.6, -100.26 21.6, -102.77 25.53 C-105.27 29.46, -104.51 46.15, -102.77 49.75 C-101.02 53.35, -95.35 45.49, -92.29 47.13 C-89.24 48.76, -83.78 55.42, -84.44 59.56 C-85.09 63.71, -95.67 66.87, -96.22 72 C-96.77 77.13, -91.42 88.58, -87.71 90.33 C-84 92.07, -78.22 82.91, -73.96 82.47 C-69.71 82.04, -64.26 84.33, -62.18 87.71 C-60.11 91.09, -64.69 100.04, -61.53 102.77 C-58.36 105.49, -46.91 105.93, -43.2 104.07 C-39.49 102.22, -42.22 94.15, -39.27 91.64 C-36.33 89.13, -29.89 87.71, -25.53 89.02 C-21.16 90.33, -17.13 99.27, -13.09 99.49 C-9.05 99.71, -2.62 94.04, -1.31 90.33 C0 86.62, -5.45 81.17, -5.24 77.24 C-5.02 73.31, -3.82 68.4, 0 66.76 C3.82 65.13, 14.73 70.91, 17.67 67.42 C20.62 63.93, 20.07 49.96, 17.67 45.82 C15.27 41.67, 6 45.27, 3.27 42.55 C0.55 39.82, 0 33.82, 1.31 29.46 C2.62 25.09, 11.35 21.27, 11.13 16.36 C10.91 11.45, 1.85 2.73, 0 0" stroke="none" stroke-width="0" fill="#1e1e1e" fill-rule="evenodd"></path><path d="M0 0 C-2.18 1.2, -9.05 6.87, -13.09 7.2 C-17.13 7.53, -22.25 5.13, -24.22 1.96 C-26.18 -1.2, -21.6 -9.27, -24.87 -11.78 C-28.15 -14.29, -39.93 -14.84, -43.86 -13.09 C-47.78 -11.35, -45.82 -3.82, -48.44 -1.31 C-51.06 1.2, -55.96 2.73, -59.56 1.96 C-63.16 1.2, -65.67 -5.35, -70.04 -5.89 C-74.4 -6.44, -83.78 -5.13, -85.75 -1.31 C-87.71 2.51, -81.49 12.44, -81.82 17.02 C-82.15 21.6, -84.22 24.76, -87.71 26.18 C-91.2 27.6, -100.26 21.6, -102.77 25.53 C-105.27 29.46, -104.51 46.15, -102.77 49.75 C-101.02 53.35, -95.35 45.49, -92.29 47.13 C-89.24 48.76, -83.78 55.42, -84.44 59.56 C-85.09 63.71, -95.67 66.87, -96.22 72 C-96.77 77.13, -91.42 88.58, -87.71 90.33 C-84 92.07, -78.22 82.91, -73.96 82.47 C-69.71 82.04, -64.26 84.33, -62.18 87.71 C-60.11 91.09, -64.69 100.04, -61.53 102.77 C-58.36 105.49, -46.91 105.93, -43.2 104.07 C-39.49 102.22, -42.22 94.15, -39.27 91.64 C-36.33 89.13, -29.89 87.71, -25.53 89.02 C-21.16 90.33, -17.13 99.27, -13.09 99.49 C-9.05 99.71, -2.62 94.04, -1.31 90.33 C0 86.62, -5.45 81.17, -5.24 77.24 C-5.02 73.31, -3.82 68.4, 0 66.76 C3.82 65.13, 14.73 70.91, 17.67 67.42 C20.62 63.93, 20.07 49.96, 17.67 45.82 C15.27 41.67, 6 45.27, 3.27 42.55 C0.55 39.82, 0 33.82, 1.31 29.46 C2.62 25.09, 11.35 21.27, 11.13 16.36 C10.91 11.45, 1.85 2.73, 0 0 M0 0 C-2.18 1.2, -9.05 6.87, -13.09 7.2 C-17.13 7.53, -22.25 5.13, -24.22 1.96 C-26.18 -1.2, -21.6 -9.27, -24.87 -11.78 C-28.15 -14.29, -39.93 -14.84, -43.86 -13.09 C-47.78 -11.35, -45.82 -3.82, -48.44 -1.31 C-51.06 1.2, -55.96 2.73, -59.56 1.96 C-63.16 1.2, -65.67 -5.35, -70.04 -5.89 C-74.4 -6.44, -83.78 -5.13, -85.75 -1.31 C-87.71 2.51, -81.49 12.44, -81.82 17.02 C-82.15 21.6, -84.22 24.76, -87.71 26.18 C-91.2 27.6, -100.26 21.6, -102.77 25.53 C-105.27 29.46, -104.51 46.15, -102.77 49.75 C-101.02 53.35, -95.35 45.49, -92.29 47.13 C-89.24 48.76, -83.78 55.42, -84.44 59.56 C-85.09 63.71, -95.67 66.87, -96.22 72 C-96.77 77.13, -91.42 88.58, -87.71 90.33 C-84 92.07, -78.22 82.91, -73.96 82.47 C-69.71 82.04, -64.26 84.33, -62.18 87.71 C-60.11 91.09, -64.69 100.04, -61.53 102.77 C-58.36 105.49, -46.91 105.93, -43.2 104.07 C-39.49 102.22, -42.22 94.15, -39.27 91.64 C-36.33 89.13, -29.89 87.71, -25.53 89.02 C-21.16 90.33, -17.13 99.27, -13.09 99.49 C-9.05 99.71, -2.62 94.04, -1.31 90.33 C0 86.62, -5.45 81.17, -5.24 77.24 C-5.02 73.31, -3.82 68.4, 0 66.76 C3.82 65.13, 14.73 70.91, 17.67 67.42 C20.62 63.93, 20.07 49.96, 17.67 45.82 C15.27 41.67, 6 45.27, 3.27 42.55 C0.55 39.82, 0 33.82, 1.31 29.46 C2.62 25.09, 11.35 21.27, 11.13 16.36 C10.91 11.45, 1.85 2.73, 0 0" stroke="#1e1e1e" stroke-width="4" fill="none"></path></g></g><mask></mask><g stroke-linecap="round"><g transform="translate(30.450107704251423 119.70605662462799) rotate(0 35.9336230286267 44.63075881076361)" fill-rule="evenodd"><path d="M0 0 C1.75 0.98, 6.98 5.24, 10.47 5.89 C13.96 6.55, 18.87 6.55, 20.95 3.93 C23.02 1.31, 19.53 -7.2, 22.91 -9.82 C26.29 -12.44, 37.53 -13.75, 41.24 -11.78 C44.95 -9.82, 42.87 -0.87, 45.16 1.96 C47.46 4.8, 51.82 5.67, 54.98 5.24 C58.15 4.8, 60.76 -1.2, 64.15 -0.65 C67.53 -0.11, 74.51 5.02, 75.27 8.51 C76.04 12, 68.73 16.47, 68.73 20.29 C68.73 24.11, 71.78 29.02, 75.27 31.42 C78.77 33.82, 86.95 31.75, 89.67 34.69 C92.4 37.64, 92.95 45.93, 91.64 49.09 C90.33 52.26, 84.44 51.71, 81.82 53.67 C79.2 55.64, 75.93 57.16, 75.93 60.87 C75.93 64.58, 82.47 71.56, 81.82 75.93 C81.17 80.29, 75.6 86.29, 72 87.06 C68.4 87.82, 63.82 80.95, 60.22 80.51 C56.62 80.07, 52.47 81.49, 50.4 84.44 C48.33 87.38, 50.73 95.35, 47.78 98.18 C44.84 101.02, 36.22 102.98, 32.73 101.46 C29.24 99.93, 29.56 91.86, 26.84 89.02 C24.11 86.18, 20.18 84, 16.36 84.44 C12.55 84.87, 8.07 92.4, 3.93 91.64 C-0.22 90.87, -7.42 83.67, -8.51 79.86 C-9.6 76.04, -3.05 72.11, -2.62 68.73 C-2.18 65.35, -3.27 61.75, -5.89 59.56 C-8.51 57.38, -16.04 58.91, -18.33 55.64 C-20.62 52.36, -21.05 43.31, -19.64 39.93 C-18.22 36.55, -12 37.31, -9.82 35.35 C-7.64 33.38, -6.33 31.31, -6.55 28.15 C-6.76 24.98, -12.22 21.05, -11.13 16.36 C-10.04 11.67, -1.85 2.73, 0 0" stroke="none" stroke-width="0" fill="#1e1e1e" fill-rule="evenodd"></path><path d="M0 0 C1.75 0.98, 6.98 5.24, 10.47 5.89 C13.96 6.55, 18.87 6.55, 20.95 3.93 C23.02 1.31, 19.53 -7.2, 22.91 -9.82 C26.29 -12.44, 37.53 -13.75, 41.24 -11.78 C44.95 -9.82, 42.87 -0.87, 45.16 1.96 C47.46 4.8, 51.82 5.67, 54.98 5.24 C58.15 4.8, 60.76 -1.2, 64.15 -0.65 C67.53 -0.11, 74.51 5.02, 75.27 8.51 C76.04 12, 68.73 16.47, 68.73 20.29 C68.73 24.11, 71.78 29.02, 75.27 31.42 C78.77 33.82, 86.95 31.75, 89.67 34.69 C92.4 37.64, 92.95 45.93, 91.64 49.09 C90.33 52.26, 84.44 51.71, 81.82 53.67 C79.2 55.64, 75.93 57.16, 75.93 60.87 C75.93 64.58, 82.47 71.56, 81.82 75.93 C81.17 80.29, 75.6 86.29, 72 87.06 C68.4 87.82, 63.82 80.95, 60.22 80.51 C56.62 80.07, 52.47 81.49, 50.4 84.44 C48.33 87.38, 50.73 95.35, 47.78 98.18 C44.84 101.02, 36.22 102.98, 32.73 101.46 C29.24 99.93, 29.56 91.86, 26.84 89.02 C24.11 86.18, 20.18 84, 16.36 84.44 C12.55 84.87, 8.07 92.4, 3.93 91.64 C-0.22 90.87, -7.42 83.67, -8.51 79.86 C-9.6 76.04, -3.05 72.11, -2.62 68.73 C-2.18 65.35, -3.27 61.75, -5.89 59.56 C-8.51 57.38, -16.04 58.91, -18.33 55.64 C-20.62 52.36, -21.05 43.31, -19.64 39.93 C-18.22 36.55, -12 37.31, -9.82 35.35 C-7.64 33.38, -6.33 31.31, -6.55 28.15 C-6.76 24.98, -12.22 21.05, -11.13 16.36 C-10.04 11.67, -1.85 2.73, 0 0 M0 0 C1.75 0.98, 6.98 5.24, 10.47 5.89 C13.96 6.55, 18.87 6.55, 20.95 3.93 C23.02 1.31, 19.53 -7.2, 22.91 -9.82 C26.29 -12.44, 37.53 -13.75, 41.24 -11.78 C44.95 -9.82, 42.87 -0.87, 45.16 1.96 C47.46 4.8, 51.82 5.67, 54.98 5.24 C58.15 4.8, 60.76 -1.2, 64.15 -0.65 C67.53 -0.11, 74.51 5.02, 75.27 8.51 C76.04 12, 68.73 16.47, 68.73 20.29 C68.73 24.11, 71.78 29.02, 75.27 31.42 C78.77 33.82, 86.95 31.75, 89.67 34.69 C92.4 37.64, 92.95 45.93, 91.64 49.09 C90.33 52.26, 84.44 51.71, 81.82 53.67 C79.2 55.64, 75.93 57.16, 75.93 60.87 C75.93 64.58, 82.47 71.56, 81.82 75.93 C81.17 80.29, 75.6 86.29, 72 87.06 C68.4 87.82, 63.82 80.95, 60.22 80.51 C56.62 80.07, 52.47 81.49, 50.4 84.44 C48.33 87.38, 50.73 95.35, 47.78 98.18 C44.84 101.02, 36.22 102.98, 32.73 101.46 C29.24 99.93, 29.56 91.86, 26.84 89.02 C24.11 86.18, 20.18 84, 16.36 84.44 C12.55 84.87, 8.07 92.4, 3.93 91.64 C-0.22 90.87, -7.42 83.67, -8.51 79.86 C-9.6 76.04, -3.05 72.11, -2.62 68.73 C-2.18 65.35, -3.27 61.75, -5.89 59.56 C-8.51 57.38, -16.04 58.91, -18.33 55.64 C-20.62 52.36, -21.05 43.31, -19.64 39.93 C-18.22 36.55, -12 37.31, -9.82 35.35 C-7.64 33.38, -6.33 31.31, -6.55 28.15 C-6.76 24.98, -12.22 21.05, -11.13 16.36 C-10.04 11.67, -1.85 2.73, 0 0" stroke="#1e1e1e" stroke-width="4" fill="none"></path></g></g><mask></mask><g stroke-linecap="round"><g transform="translate(147.89759958142395 75.56900448603278) rotate(0 -30.528046289628946 -20.58358600186432)" fill-rule="evenodd"><path d="M0 0 C1.2 0.33, 5.02 3.27, 7.2 1.96 C9.38 0.65, 13.09 -5.13, 13.09 -7.85 C13.09 -10.58, 8.29 -11.02, 7.2 -14.4 C6.11 -17.78, 5.24 -25.2, 6.55 -28.15 C7.85 -31.09, 14.4 -29.35, 15.05 -32.07 C15.71 -34.8, 12.87 -42.44, 10.47 -44.51 C8.07 -46.58, 3.27 -43.75, 0.65 -44.51 C-1.96 -45.27, -4.04 -46.15, -5.24 -49.09 C-6.44 -52.04, -4.04 -59.56, -6.55 -62.18 C-9.05 -64.8, -17.24 -65.89, -20.29 -64.8 C-23.35 -63.71, -22.69 -57.06, -24.87 -55.64 C-27.06 -54.22, -30.44 -54.66, -33.38 -56.29 C-36.33 -57.93, -39.16 -64.69, -42.55 -65.46 C-45.93 -66.22, -51.82 -62.95, -53.67 -60.87 C-55.53 -58.8, -52.91 -55.86, -53.67 -53.02 C-54.44 -50.18, -55.42 -44.84, -58.26 -43.86 C-61.09 -42.87, -67.75 -49.2, -70.69 -47.13 C-73.64 -45.06, -76.58 -35.24, -75.93 -31.42 C-75.27 -27.6, -68.51 -26.62, -66.76 -24.22 C-65.02 -21.82, -63.93 -19.53, -65.46 -17.02 C-66.98 -14.51, -74.84 -12.76, -75.93 -9.16 C-77.02 -5.56, -74.73 2.62, -72 4.58 C-69.27 6.55, -62.84 2.4, -59.56 2.62 C-56.29 2.84, -53.35 3.16, -52.36 5.89 C-51.38 8.62, -55.42 16.04, -53.67 18.98 C-51.93 21.93, -45.49 24.22, -41.89 23.56 C-38.29 22.91, -34.91 16.47, -32.07 15.05 C-29.24 13.64, -27.06 13.53, -24.87 15.05 C-22.69 16.58, -22.25 23.35, -18.98 24.22 C-15.71 25.09, -6.98 22.69, -5.24 20.29 C-3.49 17.89, -9.38 13.2, -8.51 9.82 C-7.64 6.44, -1.42 1.64, 0 0" stroke="none" stroke-width="0" fill="#1e1e1e" fill-rule="evenodd"></path><path d="M0 0 C1.2 0.33, 5.02 3.27, 7.2 1.96 C9.38 0.65, 13.09 -5.13, 13.09 -7.85 C13.09 -10.58, 8.29 -11.02, 7.2 -14.4 C6.11 -17.78, 5.24 -25.2, 6.55 -28.15 C7.85 -31.09, 14.4 -29.35, 15.05 -32.07 C15.71 -34.8, 12.87 -42.44, 10.47 -44.51 C8.07 -46.58, 3.27 -43.75, 0.65 -44.51 C-1.96 -45.27, -4.04 -46.15, -5.24 -49.09 C-6.44 -52.04, -4.04 -59.56, -6.55 -62.18 C-9.05 -64.8, -17.24 -65.89, -20.29 -64.8 C-23.35 -63.71, -22.69 -57.06, -24.87 -55.64 C-27.06 -54.22, -30.44 -54.66, -33.38 -56.29 C-36.33 -57.93, -39.16 -64.69, -42.55 -65.46 C-45.93 -66.22, -51.82 -62.95, -53.67 -60.87 C-55.53 -58.8, -52.91 -55.86, -53.67 -53.02 C-54.44 -50.18, -55.42 -44.84, -58.26 -43.86 C-61.09 -42.87, -67.75 -49.2, -70.69 -47.13 C-73.64 -45.06, -76.58 -35.24, -75.93 -31.42 C-75.27 -27.6, -68.51 -26.62, -66.76 -24.22 C-65.02 -21.82, -63.93 -19.53, -65.46 -17.02 C-66.98 -14.51, -74.84 -12.76, -75.93 -9.16 C-77.02 -5.56, -74.73 2.62, -72 4.58 C-69.27 6.55, -62.84 2.4, -59.56 2.62 C-56.29 2.84, -53.35 3.16, -52.36 5.89 C-51.38 8.62, -55.42 16.04, -53.67 18.98 C-51.93 21.93, -45.49 24.22, -41.89 23.56 C-38.29 22.91, -34.91 16.47, -32.07 15.05 C-29.24 13.64, -27.06 13.53, -24.87 15.05 C-22.69 16.58, -22.25 23.35, -18.98 24.22 C-15.71 25.09, -6.98 22.69, -5.24 20.29 C-3.49 17.89, -9.38 13.2, -8.51 9.82 C-7.64 6.44, -1.42 1.64, 0 0 M0 0 C1.2 0.33, 5.02 3.27, 7.2 1.96 C9.38 0.65, 13.09 -5.13, 13.09 -7.85 C13.09 -10.58, 8.29 -11.02, 7.2 -14.4 C6.11 -17.78, 5.24 -25.2, 6.55 -28.15 C7.85 -31.09, 14.4 -29.35, 15.05 -32.07 C15.71 -34.8, 12.87 -42.44, 10.47 -44.51 C8.07 -46.58, 3.27 -43.75, 0.65 -44.51 C-1.96 -45.27, -4.04 -46.15, -5.24 -49.09 C-6.44 -52.04, -4.04 -59.56, -6.55 -62.18 C-9.05 -64.8, -17.24 -65.89, -20.29 -64.8 C-23.35 -63.71, -22.69 -57.06, -24.87 -55.64 C-27.06 -54.22, -30.44 -54.66, -33.38 -56.29 C-36.33 -57.93, -39.16 -64.69, -42.55 -65.46 C-45.93 -66.22, -51.82 -62.95, -53.67 -60.87 C-55.53 -58.8, -52.91 -55.86, -53.67 -53.02 C-54.44 -50.18, -55.42 -44.84, -58.26 -43.86 C-61.09 -42.87, -67.75 -49.2, -70.69 -47.13 C-73.64 -45.06, -76.58 -35.24, -75.93 -31.42 C-75.27 -27.6, -68.51 -26.62, -66.76 -24.22 C-65.02 -21.82, -63.93 -19.53, -65.46 -17.02 C-66.98 -14.51, -74.84 -12.76, -75.93 -9.16 C-77.02 -5.56, -74.73 2.62, -72 4.58 C-69.27 6.55, -62.84 2.4, -59.56 2.62 C-56.29 2.84, -53.35 3.16, -52.36 5.89 C-51.38 8.62, -55.42 16.04, -53.67 18.98 C-51.93 21.93, -45.49 24.22, -41.89 23.56 C-38.29 22.91, -34.91 16.47, -32.07 15.05 C-29.24 13.64, -27.06 13.53, -24.87 15.05 C-22.69 16.58, -22.25 23.35, -18.98 24.22 C-15.71 25.09, -6.98 22.69, -5.24 20.29 C-3.49 17.89, -9.38 13.2, -8.51 9.82 C-7.64 6.44, -1.42 1.64, 0 0" stroke="#1e1e1e" stroke-width="4" fill="none"></path></g></g><mask></mask><g stroke-linecap="round" transform="translate(38.5652009041728 139.34278155459856) rotate(0 25.527742408968606 24.545906162470033)"><path d="M51.06 24.55 C51.06 25.97, 50.92 27.41, 50.67 28.81 C50.41 30.21, 50.02 31.61, 49.52 32.94 C49.01 34.28, 48.37 35.59, 47.64 36.82 C46.9 38.05, 46.03 39.24, 45.08 40.32 C44.13 41.41, 43.07 42.44, 41.94 43.35 C40.8 44.26, 39.57 45.09, 38.29 45.8 C37.01 46.51, 35.65 47.13, 34.26 47.61 C32.87 48.1, 31.42 48.47, 29.96 48.72 C28.51 48.97, 27.01 49.09, 25.53 49.09 C24.05 49.09, 22.55 48.97, 21.09 48.72 C19.64 48.47, 18.19 48.1, 16.8 47.61 C15.41 47.13, 14.04 46.51, 12.76 45.8 C11.48 45.09, 10.25 44.26, 9.12 43.35 C7.99 42.44, 6.92 41.41, 5.97 40.32 C5.02 39.24, 4.16 38.05, 3.42 36.82 C2.68 35.59, 2.04 34.28, 1.54 32.94 C1.03 31.61, 0.64 30.21, 0.39 28.81 C0.13 27.41, 0 25.97, 0 24.55 C0 23.13, 0.13 21.68, 0.39 20.28 C0.64 18.88, 1.03 17.49, 1.54 16.15 C2.04 14.82, 2.68 13.5, 3.42 12.27 C4.16 11.04, 5.02 9.86, 5.97 8.77 C6.92 7.68, 7.99 6.66, 9.12 5.74 C10.25 4.83, 11.48 4, 12.76 3.29 C14.04 2.58, 15.41 1.97, 16.8 1.48 C18.19 0.99, 19.64 0.62, 21.09 0.37 C22.55 0.13, 24.05 0, 25.53 0 C27.01 0, 28.51 0.13, 29.96 0.37 C31.42 0.62, 32.87 0.99, 34.26 1.48 C35.65 1.97, 37.01 2.58, 38.29 3.29 C39.57 4, 40.8 4.83, 41.94 5.74 C43.07 6.66, 44.13 7.68, 45.08 8.77 C46.03 9.86, 46.9 11.04, 47.64 12.27 C48.37 13.5, 49.01 14.82, 49.52 16.15 C50.02 17.49, 50.41 18.88, 50.67 20.28 C50.92 21.68, 50.99 23.84, 51.06 24.55 C51.12 25.26, 51.12 23.84, 51.06 24.55" stroke="none" stroke-width="0" fill="#ffffff"></path><path d="M51.06 24.55 C51.06 25.97, 50.92 27.41, 50.67 28.81 C50.41 30.21, 50.02 31.61, 49.52 32.94 C49.01 34.28, 48.37 35.59, 47.64 36.82 C46.9 38.05, 46.03 39.24, 45.08 40.32 C44.13 41.41, 43.07 42.44, 41.94 43.35 C40.8 44.26, 39.57 45.09, 38.29 45.8 C37.01 46.51, 35.65 47.13, 34.26 47.61 C32.87 48.1, 31.42 48.47, 29.96 48.72 C28.51 48.97, 27.01 49.09, 25.53 49.09 C24.05 49.09, 22.55 48.97, 21.09 48.72 C19.64 48.47, 18.19 48.1, 16.8 47.61 C15.41 47.13, 14.04 46.51, 12.76 45.8 C11.48 45.09, 10.25 44.26, 9.12 43.35 C7.99 42.44, 6.92 41.41, 5.97 40.32 C5.02 39.24, 4.16 38.05, 3.42 36.82 C2.68 35.59, 2.04 34.28, 1.54 32.94 C1.03 31.61, 0.64 30.21, 0.39 28.81 C0.13 27.41, 0 25.97, 0 24.55 C0 23.13, 0.13 21.68, 0.39 20.28 C0.64 18.88, 1.03 17.49, 1.54 16.15 C2.04 14.82, 2.68 13.5, 3.42 12.27 C4.16 11.04, 5.02 9.86, 5.97 8.77 C6.92 7.68, 7.99 6.66, 9.12 5.74 C10.25 4.83, 11.48 4, 12.76 3.29 C14.04 2.58, 15.41 1.97, 16.8 1.48 C18.19 0.99, 19.64 0.62, 21.09 0.37 C22.55 0.13, 24.05 0, 25.53 0 C27.01 0, 28.51 0.13, 29.96 0.37 C31.42 0.62, 32.87 0.99, 34.26 1.48 C35.65 1.97, 37.01 2.58, 38.29 3.29 C39.57 4, 40.8 4.83, 41.94 5.74 C43.07 6.66, 44.13 7.68, 45.08 8.77 C46.03 9.86, 46.9 11.04, 47.64 12.27 C48.37 13.5, 49.01 14.82, 49.52 16.15 C50.02 17.49, 50.41 18.88, 50.67 20.28 C50.92 21.68, 50.99 23.84, 51.06 24.55 C51.12 25.26, 51.12 23.84, 51.06 24.55" stroke="#1e1e1e" stroke-width="4" fill="none"></path></g><g stroke-linecap="round" transform="translate(168.97719054853815 121.60995245241224) rotate(0 27.49141490196621 28.473251148465124)"><path d="M54.98 28.47 C54.98 30.12, 54.84 31.79, 54.57 33.42 C54.29 35.04, 53.87 36.66, 53.32 38.21 C52.78 39.76, 52.1 41.28, 51.3 42.71 C50.5 44.14, 49.57 45.51, 48.55 46.78 C47.53 48.04, 46.38 49.23, 45.16 50.29 C43.94 51.34, 42.62 52.31, 41.24 53.13 C39.86 53.96, 38.39 54.67, 36.89 55.23 C35.4 55.79, 33.83 56.23, 32.27 56.51 C30.7 56.8, 29.08 56.95, 27.49 56.95 C25.9 56.95, 24.28 56.8, 22.72 56.51 C21.15 56.23, 19.58 55.79, 18.09 55.23 C16.59 54.67, 15.12 53.96, 13.75 53.13 C12.37 52.31, 11.04 51.34, 9.82 50.29 C8.6 49.23, 7.45 48.04, 6.43 46.78 C5.41 45.51, 4.48 44.14, 3.68 42.71 C2.89 41.28, 2.2 39.76, 1.66 38.21 C1.11 36.66, 0.69 35.04, 0.42 33.42 C0.14 31.79, 0 30.12, 0 28.47 C0 26.83, 0.14 25.15, 0.42 23.53 C0.69 21.91, 1.11 20.28, 1.66 18.73 C2.2 17.19, 2.89 15.66, 3.68 14.24 C4.48 12.81, 5.41 11.43, 6.43 10.17 C7.45 8.91, 8.6 7.72, 9.82 6.66 C11.04 5.6, 12.37 4.64, 13.75 3.81 C15.12 2.99, 16.59 2.28, 18.09 1.72 C19.58 1.15, 21.15 0.72, 22.72 0.43 C24.28 0.15, 25.9 0, 27.49 0 C29.08 0, 30.7 0.15, 32.27 0.43 C33.83 0.72, 35.4 1.15, 36.89 1.72 C38.39 2.28, 39.86 2.99, 41.24 3.81 C42.62 4.64, 43.94 5.6, 45.16 6.66 C46.38 7.72, 47.53 8.91, 48.55 10.17 C49.57 11.43, 50.5 12.81, 51.3 14.24 C52.1 15.66, 52.78 17.19, 53.32 18.73 C53.87 20.28, 54.29 21.91, 54.57 23.53 C54.84 25.15, 54.91 27.65, 54.98 28.47 C55.05 29.3, 55.05 27.65, 54.98 28.47" stroke="none" stroke-width="0" fill="#ffffff"></path><path d="M54.98 28.47 C54.98 30.12, 54.84 31.79, 54.57 33.42 C54.29 35.04, 53.87 36.66, 53.32 38.21 C52.78 39.76, 52.1 41.28, 51.3 42.71 C50.5 44.14, 49.57 45.51, 48.55 46.78 C47.53 48.04, 46.38 49.23, 45.16 50.29 C43.94 51.34, 42.62 52.31, 41.24 53.13 C39.86 53.96, 38.39 54.67, 36.89 55.23 C35.4 55.79, 33.83 56.23, 32.27 56.51 C30.7 56.8, 29.08 56.95, 27.49 56.95 C25.9 56.95, 24.28 56.8, 22.72 56.51 C21.15 56.23, 19.58 55.79, 18.09 55.23 C16.59 54.67, 15.12 53.96, 13.75 53.13 C12.37 52.31, 11.04 51.34, 9.82 50.29 C8.6 49.23, 7.45 48.04, 6.43 46.78 C5.41 45.51, 4.48 44.14, 3.68 42.71 C2.89 41.28, 2.2 39.76, 1.66 38.21 C1.11 36.66, 0.69 35.04, 0.42 33.42 C0.14 31.79, 0 30.12, 0 28.47 C0 26.83, 0.14 25.15, 0.42 23.53 C0.69 21.91, 1.11 20.28, 1.66 18.73 C2.2 17.19, 2.89 15.66, 3.68 14.24 C4.48 12.81, 5.41 11.43, 6.43 10.17 C7.45 8.91, 8.6 7.72, 9.82 6.66 C11.04 5.6, 12.37 4.64, 13.75 3.81 C15.12 2.99, 16.59 2.28, 18.09 1.72 C19.58 1.15, 21.15 0.72, 22.72 0.43 C24.28 0.15, 25.9 0, 27.49 0 C29.08 0, 30.7 0.15, 32.27 0.43 C33.83 0.72, 35.4 1.15, 36.89 1.72 C38.39 2.28, 39.86 2.99, 41.24 3.81 C42.62 4.64, 43.94 5.6, 45.16 6.66 C46.38 7.72, 47.53 8.91, 48.55 10.17 C49.57 11.43, 50.5 12.81, 51.3 14.24 C52.1 15.66, 52.78 17.19, 53.32 18.73 C53.87 20.28, 54.29 21.91, 54.57 23.53 C54.84 25.15, 54.91 27.65, 54.98 28.47 C55.05 29.3, 55.05 27.65, 54.98 28.47" stroke="#1e1e1e" stroke-width="4" fill="none"></path></g><g stroke-linecap="round" transform="translate(94.48428800075135 29.816855170321332) rotate(0 22.25495492063942 23.891348664804127)"><path d="M44.51 23.89 C44.51 25.27, 44.4 26.68, 44.17 28.04 C43.95 29.4, 43.61 30.76, 43.17 32.06 C42.73 33.36, 42.17 34.64, 41.53 35.84 C40.88 37.03, 40.13 38.19, 39.3 39.25 C38.48 40.31, 37.55 41.3, 36.56 42.19 C35.57 43.08, 34.5 43.89, 33.38 44.58 C32.27 45.27, 31.08 45.87, 29.87 46.34 C28.66 46.81, 27.39 47.18, 26.12 47.42 C24.85 47.66, 23.54 47.78, 22.25 47.78 C20.97 47.78, 19.66 47.66, 18.39 47.42 C17.12 47.18, 15.85 46.81, 14.64 46.34 C13.43 45.87, 12.24 45.27, 11.13 44.58 C10.01 43.89, 8.94 43.08, 7.95 42.19 C6.96 41.3, 6.03 40.31, 5.21 39.25 C4.38 38.19, 3.63 37.03, 2.98 35.84 C2.34 34.64, 1.78 33.36, 1.34 32.06 C0.9 30.76, 0.56 29.4, 0.34 28.04 C0.11 26.68, 0 25.27, 0 23.89 C0 22.51, 0.11 21.1, 0.34 19.74 C0.56 18.38, 0.9 17.02, 1.34 15.72 C1.78 14.42, 2.34 13.14, 2.98 11.95 C3.63 10.75, 4.38 9.59, 5.21 8.53 C6.03 7.47, 6.96 6.48, 7.95 5.59 C8.94 4.7, 10.01 3.89, 11.13 3.2 C12.24 2.51, 13.43 1.91, 14.64 1.44 C15.85 0.97, 17.12 0.6, 18.39 0.36 C19.66 0.12, 20.97 0, 22.25 0 C23.54 0, 24.85 0.12, 26.12 0.36 C27.39 0.6, 28.66 0.97, 29.87 1.44 C31.08 1.91, 32.27 2.51, 33.38 3.2 C34.5 3.89, 35.57 4.7, 36.56 5.59 C37.55 6.48, 38.48 7.47, 39.3 8.53 C40.13 9.59, 40.88 10.75, 41.53 11.95 C42.17 13.14, 42.73 14.42, 43.17 15.72 C43.61 17.02, 43.95 18.38, 44.17 19.74 C44.4 21.1, 44.45 23.2, 44.51 23.89 C44.57 24.58, 44.57 23.2, 44.51 23.89" stroke="none" stroke-width="0" fill="#ffffff"></path><path d="M44.51 23.89 C44.51 25.27, 44.4 26.68, 44.17 28.04 C43.95 29.4, 43.61 30.76, 43.17 32.06 C42.73 33.36, 42.17 34.64, 41.53 35.84 C40.88 37.03, 40.13 38.19, 39.3 39.25 C38.48 40.31, 37.55 41.3, 36.56 42.19 C35.57 43.08, 34.5 43.89, 33.38 44.58 C32.27 45.27, 31.08 45.87, 29.87 46.34 C28.66 46.81, 27.39 47.18, 26.12 47.42 C24.85 47.66, 23.54 47.78, 22.25 47.78 C20.97 47.78, 19.66 47.66, 18.39 47.42 C17.12 47.18, 15.85 46.81, 14.64 46.34 C13.43 45.87, 12.24 45.27, 11.13 44.58 C10.01 43.89, 8.94 43.08, 7.95 42.19 C6.96 41.3, 6.03 40.31, 5.21 39.25 C4.38 38.19, 3.63 37.03, 2.98 35.84 C2.34 34.64, 1.78 33.36, 1.34 32.06 C0.9 30.76, 0.56 29.4, 0.34 28.04 C0.11 26.68, 0 25.27, 0 23.89 C0 22.51, 0.11 21.1, 0.34 19.74 C0.56 18.38, 0.9 17.02, 1.34 15.72 C1.78 14.42, 2.34 13.14, 2.98 11.95 C3.63 10.75, 4.38 9.59, 5.21 8.53 C6.03 7.47, 6.96 6.48, 7.95 5.59 C8.94 4.7, 10.01 3.89, 11.13 3.2 C12.24 2.51, 13.43 1.91, 14.64 1.44 C15.85 0.97, 17.12 0.6, 18.39 0.36 C19.66 0.12, 20.97 0, 22.25 0 C23.54 0, 24.85 0.12, 26.12 0.36 C27.39 0.6, 28.66 0.97, 29.87 1.44 C31.08 1.91, 32.27 2.51, 33.38 3.2 C34.5 3.89, 35.57 4.7, 36.56 5.59 C37.55 6.48, 38.48 7.47, 39.3 8.53 C40.13 9.59, 40.88 10.75, 41.53 11.95 C42.17 13.14, 42.73 14.42, 43.17 15.72 C43.61 17.02, 43.95 18.38, 44.17 19.74 C44.4 21.1, 44.45 23.2, 44.51 23.89 C44.57 24.58, 44.57 23.2, 44.51 23.89" stroke="#1e1e1e" stroke-width="4" fill="none"></path></g></svg>