<svg version="1.1" xmlns="http://www.w3.org/2000/svg" viewBox="0 0 81.45712960550827 101.22429618185288" width="244.3713888165248" height="303.67288854555864">
  <!-- svg-source:excalidraw -->
  
  <defs>
    <style class="style-fonts">
      @font-face {
        font-family: "Virgil";
        src: url("https://excalidraw.com/Virgil.woff2");
      }
      @font-face {
        font-family: "Cascadia";
        src: url("https://excalidraw.com/Cascadia.woff2");
      }
      @font-face {
        font-family: "Assistant";
        src: url("https://excalidraw.com/Assistant-Regular.woff2");
      }
    </style>
    
  </defs>
  <g stroke-linecap="round" transform="translate(10.167220092560456 71.0072924092733) rotate(0 23.17262607891189 10.108501886289787)"><path d="M0.9 0.87 L47.17 0.57 L46.86 20.79 L0.43 20.48" stroke="none" stroke-width="0" fill="#969696"></path><path d="M0 0 C16.79 -0.46, 33.88 -0.05, 46.35 0 M0 0 C11.82 0.21, 24.44 0, 46.35 0 M46.35 0 C46.95 7.77, 46.95 15.1, 46.35 20.22 M46.35 0 C46.15 6.24, 46.06 12.29, 46.35 20.22 M46.35 20.22 C30.29 19.91, 13.34 19.4, 0 20.22 M46.35 20.22 C36.9 20.3, 26.29 20.41, 0 20.22 M0 20.22 C0.98 13.09, 0.94 7.41, 0 0 M0 20.22 C0.11 13.98, 0.07 7.08, 0 0" stroke="#1e1e1e" stroke-width="1" fill="none"></path></g><g stroke-linecap="round"><g transform="translate(71.00489575805659 53.05592862626554) rotate(0 -7.265741483345664 19.05895414613019)" fill-rule="evenodd"><path d="M-0.03 0.58 L-0.9 21.43 L-13.51 37.16 L-14.14 17.03 L0.54 0.14" stroke="none" stroke-width="0" fill="#969696" fill-rule="evenodd"></path><path d="M0 0 C-0.65 7.92, -0.41 15.99, 0 21.73 M0 0 C-0.08 7.09, 0.17 13.98, 0 21.73 M0 21.73 C-2.35 26.05, -6.08 28.72, -14.51 38.12 M0 21.73 C-4.11 26.53, -7.32 30.36, -14.51 38.12 M-14.51 38.12 C-14.68 33.36, -15.42 30.66, -14.53 17.53 M-14.51 38.12 C-14.81 31.39, -14.57 24.09, -14.53 17.53 M-14.53 17.53 C-10.53 13.48, -7.98 10.29, 0 0 M-14.53 17.53 C-9.96 12, -5.16 7.13, 0 0 M0 0 C0 0, 0 0, 0 0 M0 0 C0 0, 0 0, 0 0" stroke="#1e1e1e" stroke-width="1" fill="none"></path></g></g><mask></mask><g stroke-linecap="round"><g transform="translate(10 70.66941303841213) rotate(0 30.494298667832027 -8.660513549841426)" fill-rule="evenodd"><path d="M-1.81 -0.61 L19.78 -19.7 L61.76 -18.77 L47.4 0.74 L-1.29 -1.85" stroke="none" stroke-width="0" fill="#969696" fill-rule="evenodd"></path><path d="M0 0 C4.14 -4.14, 10.1 -11.14, 17.79 -17.79 M0 0 C6.8 -6.48, 11.63 -11.94, 17.79 -17.79 M17.79 -17.79 C33.39 -17.94, 48.51 -18.96, 60.99 -17.79 M17.79 -17.79 C34.19 -18.12, 48.53 -17.81, 60.99 -17.79 M60.99 -17.79 C54.97 -10.77, 53.05 -5.27, 46.32 0.46 M60.99 -17.79 C56.6 -12.94, 51.28 -5.84, 46.32 0.46 M46.32 0.46 C36.81 1.11, 26.55 0.76, 0 0 M46.32 0.46 C30.65 1.09, 14.02 0.62, 0 0 M0 0 C0 0, 0 0, 0 0 M0 0 C0 0, 0 0, 0 0" stroke="#1e1e1e" stroke-width="1" fill="none"></path></g></g><mask></mask><g stroke-linecap="round" transform="translate(10.167220092560456 49.85925473460884) rotate(0 23.17262607891189 10.108501886289787)"><path d="M0.43 0.26 L45.46 -0.34 L45.58 20.62 L-0.36 20.86" stroke="none" stroke-width="0" fill="#00abcc"></path><path d="M0 0 C14.55 -0.88, 29.16 -0.07, 46.35 0 M0 0 C13.96 0.36, 29.15 0.35, 46.35 0 M46.35 0 C45.94 7.39, 47.01 15, 46.35 20.22 M46.35 0 C45.91 8.18, 46.36 15.92, 46.35 20.22 M46.35 20.22 C35.49 21.4, 24 20.04, 0 20.22 M46.35 20.22 C31 20.51, 16.02 20.49, 0 20.22 M0 20.22 C0.06 14.96, 0.55 9.33, 0 0 M0 20.22 C0.32 14.78, 0.17 9.05, 0 0" stroke="#1e1e1e" stroke-width="1" fill="none"></path></g><g stroke-linecap="round"><g transform="translate(71.00489575806023 31.90789095160062) rotate(0 -7.265741483345664 19.05895414613019)" fill-rule="evenodd"><path d="M0.39 -0.49 L0.54 21.87 L-15.15 37.2 L-15.12 18.03 L0.04 -0.43" stroke="none" stroke-width="0" fill="#00abcc" fill-rule="evenodd"></path><path d="M0 0 C0.55 7.21, 0.14 14.93, 0 21.73 M0 0 C0.22 6.43, 0.33 12.19, 0 21.73 M0 21.73 C-3.87 26.2, -8.09 32.43, -14.51 38.12 M0 21.73 C-4.58 26.74, -9.3 31.41, -14.51 38.12 M-14.51 38.12 C-14.54 29.72, -14.33 22.2, -14.53 17.53 M-14.51 38.12 C-14.86 33.8, -14.56 28.71, -14.53 17.53 M-14.53 17.53 C-8.98 11.73, -4.73 6.37, 0 0 M-14.53 17.53 C-8.72 10.98, -3.13 4.04, 0 0 M0 0 C0 0, 0 0, 0 0 M0 0 C0 0, 0 0, 0 0" stroke="#1e1e1e" stroke-width="1" fill="none"></path></g></g><mask></mask><g stroke-linecap="round"><g transform="translate(10 49.521375363747666) rotate(0 30.494298667832027 -8.660513549841426)" fill-rule="evenodd"><path d="M1.08 0.27 L16.5 -19.63 L59.81 -16.78 L46.4 -0.4 L-1.24 -1.36" stroke="none" stroke-width="0" fill="#00abcc" fill-rule="evenodd"></path><path d="M0 0 C4.03 -2.86, 7.34 -9.64, 17.79 -17.79 M0 0 C7.19 -6.64, 12.88 -13.4, 17.79 -17.79 M17.79 -17.79 C30.91 -16.44, 40.38 -19.48, 60.99 -17.79 M17.79 -17.79 C31.81 -18.59, 47.9 -17.41, 60.99 -17.79 M60.99 -17.79 C55.61 -10.37, 47.95 -4.91, 46.32 0.46 M60.99 -17.79 C54.85 -10.3, 49.8 -3.31, 46.32 0.46 M46.32 0.46 C30.67 2.21, 17.44 1.92, 0 0 M46.32 0.46 C30.21 0.82, 12.36 0.06, 0 0 M0 0 C0 0, 0 0, 0 0 M0 0 C0 0, 0 0, 0 0" stroke="#1e1e1e" stroke-width="1" fill="none"></path></g></g><mask></mask><g stroke-linecap="round" transform="translate(10.167220092560456 28.39311210895721) rotate(0 23.17262607891189 10.108501886289787)"><path d="M-0.36 0.65 L45.76 0.03 L46.32 20.8 L-0.9 19.91" stroke="none" stroke-width="0" fill="#a80039"></path><path d="M0 0 C13.74 -1.04, 28.48 0.53, 46.35 0 M0 0 C16.84 -0.18, 33.37 0.35, 46.35 0 M46.35 0 C46.52 3.89, 46.82 9.65, 46.35 20.22 M46.35 0 C46.73 5.97, 46.77 11.62, 46.35 20.22 M46.35 20.22 C33.54 19.45, 23.03 19.39, 0 20.22 M46.35 20.22 C28.6 20.31, 10.58 20.56, 0 20.22 M0 20.22 C0.89 14.5, 0.59 7.64, 0 0 M0 20.22 C-0.49 12.82, -0.43 5.97, 0 0" stroke="#1e1e1e" stroke-width="1" fill="none"></path></g><g stroke-linecap="round"><g transform="translate(71.00489575805841 10.441748325949447) rotate(0 -7.265741483345664 19.05895414613019)" fill-rule="evenodd"><path d="M-0.59 0.51 L0.04 21.3 L-15.13 37.44 L-14.08 17.19 L-0.81 0.28" stroke="none" stroke-width="0" fill="#a80039" fill-rule="evenodd"></path><path d="M0 0 C0.6 8.31, 0.6 16.17, 0 21.73 M0 0 C-0.19 6.68, -0.29 13.17, 0 21.73 M0 21.73 C-4.76 27.39, -10.41 32.7, -14.51 38.12 M0 21.73 C-2.55 25.28, -6.34 28.89, -14.51 38.12 M-14.51 38.12 C-13.54 30.87, -13.58 25.07, -14.53 17.53 M-14.51 38.12 C-14.41 31.76, -14.45 24.74, -14.53 17.53 M-14.53 17.53 C-8.38 11.15, -2.71 4.24, 0 0 M-14.53 17.53 C-10.1 12.04, -5.16 6.45, 0 0 M0 0 C0 0, 0 0, 0 0 M0 0 C0 0, 0 0, 0 0" stroke="#1e1e1e" stroke-width="1" fill="none"></path></g></g><mask></mask><g stroke-linecap="round"><g transform="translate(10 28.055232738096038) rotate(0 30.494298667832027 -8.660513549841426)" fill-rule="evenodd"><path d="M0.08 -0.87 L16.55 -19.15 L61.89 -18.46 L44.71 1.03 L1.12 -0.83" stroke="none" stroke-width="0" fill="#a80039" fill-rule="evenodd"></path><path d="M0 0 C4.84 -2.11, 7.15 -7.32, 17.79 -17.79 M0 0 C4.11 -3.8, 9.89 -9.31, 17.79 -17.79 M17.79 -17.79 C26.29 -18.93, 33.58 -15.97, 60.99 -17.79 M17.79 -17.79 C31.76 -17.57, 46.61 -18.48, 60.99 -17.79 M60.99 -17.79 C59.67 -14.39, 55.14 -9, 46.32 0.46 M60.99 -17.79 C56.76 -12.25, 52.91 -5.59, 46.32 0.46 M46.32 0.46 C29.74 1.38, 11.39 -1.43, 0 0 M46.32 0.46 C33.64 1.17, 21.1 0.43, 0 0 M0 0 C0 0, 0 0, 0 0 M0 0 C0 0, 0 0, 0 0" stroke="#1e1e1e" stroke-width="1" fill="none"></path></g></g><mask></mask></svg>