<svg version="1.1" xmlns="http://www.w3.org/2000/svg" viewBox="0 0 81.15883261030194 108.37821420743103" width="243.47649783090583" height="325.1346426222931">
  <g stroke-linecap="round" transform="translate(10.167220092560456 28.123455090075822) rotate(0 23.17262607891189 34.762817636970794)">
    <path d="M0.61 -1.17 L45.48 1.47 L47.87 69.12 L0.58 70.03" stroke="none" stroke-width="0" fill="#ffffff"></path><path d="M0 0 C12.78 -1.17, 25.45 0.25, 46.35 0 M0 0 C11.39 0.92, 21.82 0.97, 46.35 0 M46.35 0 C47.97 26.31, 47.94 50.26, 46.35 69.53 M46.35 0 C46.62 14.32, 45.69 28.01, 46.35 69.53 M46.35 69.53 C33.59 70.97, 18.68 68.44, 0 69.53 M46.35 69.53 C32.3 70.02, 18.21 70.18, 0 69.53 M0 69.53 C-0.51 50.96, -1.25 33.66, 0 0 M0 69.53 C-0.35 53.01, -0.2 35.84, 0 0" stroke="#1e1e1e" stroke-width="1" fill="none"></path></g><g stroke-linecap="round"><g transform="translate(70.30528324665829 10.17209130706783) rotate(0 -6.927977260345415 44.1030614501816)" fill-rule="evenodd"><path d="M0.55 -0.61 L1.77 67.77 L-15.23 87.37 L-15.55 17.47 L-1.5 1.86" stroke="none" stroke-width="0" fill="#ffffff" fill-rule="evenodd"></path><path d="M0 0 C1.61 26.76, -1.17 53.27, 0 66.81 M0 0 C1.1 16.14, 1.18 30.54, 0 66.81 M0 66.81 C-3.3 74.54, -12.53 84.42, -13.83 88.21 M0 66.81 C-3.82 71.03, -5.79 75.99, -13.83 88.21 M-13.83 88.21 C-14.62 62.15, -14.27 38.72, -13.86 19.13 M-13.83 88.21 C-14.47 72.03, -14.07 54.88, -13.86 19.13 M-13.86 19.13 C-10.64 12.22, -7.32 6.75, 0 0 M-13.86 19.13 C-9.9 12.12, -4.24 5.94, 0 0 M0 0 C0 0, 0 0, 0 0 M0 0 C0 0, 0 0, 0 0" stroke="#1e1e1e" stroke-width="1" fill="none"></path></g></g><mask></mask><g stroke-linecap="round"><g transform="translate(10 27.78557571921465) rotate(0 30.494298667832027 -8.660513549841426)" fill-rule="evenodd"><path d="M1.77 0.96 L16.39 -18.62 L59.29 -19.45 L44.83 2.32 L-0.67 -1.95" stroke="none" stroke-width="0" fill="#ffffff" fill-rule="evenodd"></path><path d="M0 0 C3.13 -3.63, 7.85 -7.85, 17.79 -17.79 M0 0 C6.97 -6.97, 13.63 -11.98, 17.79 -17.79 M17.79 -17.79 C30.63 -16.78, 45.48 -17.69, 60.99 -17.79 M17.79 -17.79 C31.51 -17.38, 45.95 -17.26, 60.99 -17.79 M60.99 -17.79 C55.55 -11.41, 49.37 -5.71, 46.32 0.46 M60.99 -17.79 C54.79 -10, 49.65 -3.96, 46.32 0.46 M46.32 0.46 C34.53 -1.73, 25.84 -2, 0 0 M46.32 0.46 C32.86 -0.59, 18.35 0.59, 0 0 M0 0 C0 0, 0 0, 0 0 M0 0 C0 0, 0 0, 0 0" stroke="#1e1e1e" stroke-width="1" fill="none"></path></g></g><mask></mask></svg>
