<svg version="1.1" xmlns="http://www.w3.org/2000/svg" viewBox="0 0 81.0984265634761 80.12998971084858" width="243.2952796904283" height="240.38996913254573">
  <!-- svg-source:excalidraw -->
  
  <defs>
    <style class="style-fonts">
      @font-face {
        font-family: "Virgil";
        src: url("https://excalidraw.com/Virgil.woff2");
      }
      @font-face {
        font-family: "Cascadia";
        src: url("https://excalidraw.com/Cascadia.woff2");
      }
      @font-face {
        font-family: "Assistant";
        src: url("https://excalidraw.com/Assistant-Regular.woff2");
      }
    </style>
    
  </defs>
  <g stroke-linecap="round" transform="translate(10.167220092560456 49.912985938269) rotate(0 23.17262607891189 10.108501886289787)"><path d="M-0.28 0.42 L46.5 -0.86 L45.85 20.29 L-0.88 19.93" stroke="none" stroke-width="0" fill="#00abcc"></path><path d="M0 0 C13.59 0.34, 28.22 0.22, 46.35 0 M0 0 C10.06 -0.19, 20.1 -0.52, 46.35 0 M46.35 0 C47.06 4.98, 46.29 8.27, 46.35 20.22 M46.35 0 C46.43 5.89, 46.8 11.45, 46.35 20.22 M46.35 20.22 C31.55 21.1, 17.1 19.43, 0 20.22 M46.35 20.22 C35.72 20.54, 25.57 19.91, 0 20.22 M0 20.22 C-0.8 13.59, 0.4 7.14, 0 0 M0 20.22 C0.06 13.41, 0.43 6.89, 0 0" stroke="#1e1e1e" stroke-width="1" fill="none"></path></g><g stroke-linecap="round"><g transform="translate(71.00489575806023 31.96162215526101) rotate(0 -7.265741483345664 19.05895414613019)" fill-rule="evenodd"><path d="M0.31 0.6 L-0.28 21.2 L-14.45 37.57 L-13.6 18.12 L0.47 -0.95" stroke="none" stroke-width="0" fill="#00abcc" fill-rule="evenodd"></path><path d="M0 0 C0.44 4.69, -0.88 9.46, 0 21.73 M0 0 C0.16 8.04, -0.4 17.15, 0 21.73 M0 21.73 C-4.43 26.2, -8.84 31.59, -14.51 38.12 M0 21.73 C-4.8 27.91, -10.45 34.16, -14.51 38.12 M-14.51 38.12 C-14.52 29.39, -15.31 22.6, -14.53 17.53 M-14.51 38.12 C-14.83 29.96, -14.23 22.98, -14.53 17.53 M-14.53 17.53 C-9.11 12.26, -4.46 5.62, 0 0 M-14.53 17.53 C-8.73 10.65, -3.91 4.8, 0 0 M0 0 C0 0, 0 0, 0 0 M0 0 C0 0, 0 0, 0 0" stroke="#1e1e1e" stroke-width="1" fill="none"></path></g></g><mask></mask><g stroke-linecap="round"><g transform="translate(10 49.5751065674076) rotate(0 30.494298667832027 -8.660513549841426)" fill-rule="evenodd"><path d="M-0.57 -1.08 L17.91 -18.88 L62.85 -16.6 L47.27 -1.43 L-1.08 0.19" stroke="none" stroke-width="0" fill="#00abcc" fill-rule="evenodd"></path><path d="M0 0 C3.82 -5.35, 12.8 -10.87, 17.79 -17.79 M0 0 C4.46 -4.37, 10.63 -9.95, 17.79 -17.79 M17.79 -17.79 C32.92 -17.55, 50.18 -17.26, 60.99 -17.79 M17.79 -17.79 C33.09 -16.96, 48.86 -18.13, 60.99 -17.79 M60.99 -17.79 C53.95 -11.17, 51.58 -6.18, 46.32 0.46 M60.99 -17.79 C56.4 -11.47, 51.54 -6.65, 46.32 0.46 M46.32 0.46 C31.67 0.55, 17.69 0.69, 0 0 M46.32 0.46 C35.52 0.37, 25.43 -1.01, 0 0 M0 0 C0 0, 0 0, 0 0 M0 0 C0 0, 0 0, 0 0" stroke="#1e1e1e" stroke-width="1" fill="none"></path></g></g><mask></mask><g stroke-linecap="round" transform="translate(10.167220092560456 28.358431050866784) rotate(0 23.17262607891189 10.108501886289787)"><path d="M-0.88 -0.29 L46.76 -0.78 L47.27 19.57 L0.38 19.6" stroke="none" stroke-width="0" fill="#a80039"></path><path d="M0 0 C14.86 0.13, 28.03 0.26, 46.35 0 M0 0 C10.94 0.11, 22.19 -0.27, 46.35 0 M46.35 0 C46.95 5.26, 46.83 11.11, 46.35 20.22 M46.35 0 C46.74 6.74, 46.71 13.65, 46.35 20.22 M46.35 20.22 C37.66 19.33, 27.82 19.4, 0 20.22 M46.35 20.22 C37.08 19.94, 27.56 20.54, 0 20.22 M0 20.22 C0.69 12.91, -0.75 6.23, 0 0 M0 20.22 C0.11 15.49, -0.22 11.66, 0 0" stroke="#1e1e1e" stroke-width="1" fill="none"></path></g><g stroke-linecap="round"><g transform="translate(71.00489575805841 10.407067267858793) rotate(0 -7.265741483345664 19.05895414613019)" fill-rule="evenodd"><path d="M0.93 0.59 L0.47 20.78 L-15.05 38.21 L-15.18 16.56 L0.35 0.13" stroke="none" stroke-width="0" fill="#a80039" fill-rule="evenodd"></path><path d="M0 0 C0.1 7.08, -0.55 12.74, 0 21.73 M0 0 C0.3 8.33, -0.24 16.7, 0 21.73 M0 21.73 C-3.82 27.6, -8.32 31.78, -14.51 38.12 M0 21.73 C-5.38 28.25, -12.01 34.4, -14.51 38.12 M-14.51 38.12 C-14.29 31.13, -15.56 26.17, -14.53 17.53 M-14.51 38.12 C-14.43 31.27, -14.23 24.07, -14.53 17.53 M-14.53 17.53 C-11.02 13.17, -6.86 6.86, 0 0 M-14.53 17.53 C-9.83 11.64, -5.06 5.47, 0 0 M0 0 C0 0, 0 0, 0 0 M0 0 C0 0, 0 0, 0 0" stroke="#1e1e1e" stroke-width="1" fill="none"></path></g></g><mask></mask><g stroke-linecap="round"><g transform="translate(10 28.02055168000561) rotate(0 30.494298667832027 -8.660513549841426)" fill-rule="evenodd"><path d="M0.95 -1.9 L16.71 -17.59 L59.7 -19.72 L47.03 0.72 L-1.05 -0.87" stroke="none" stroke-width="0" fill="#a80039" fill-rule="evenodd"></path><path d="M0 0 C4.35 -7.35, 12.98 -11.32, 17.79 -17.79 M0 0 C5.87 -6.64, 12.81 -12.25, 17.79 -17.79 M17.79 -17.79 C32.2 -17.87, 47.09 -16.64, 60.99 -17.79 M17.79 -17.79 C28.99 -18.58, 42.13 -17.05, 60.99 -17.79 M60.99 -17.79 C56.02 -13.25, 55.71 -9.43, 46.32 0.46 M60.99 -17.79 C58.42 -13.45, 54.43 -8.84, 46.32 0.46 M46.32 0.46 C30.17 0.16, 18.35 0.88, 0 0 M46.32 0.46 C35.54 0.11, 26.94 -0.48, 0 0 M0 0 C0 0, 0 0, 0 0 M0 0 C0 0, 0 0, 0 0" stroke="#1e1e1e" stroke-width="1" fill="none"></path></g></g><mask></mask></svg>