<svg version="1.1" xmlns="http://www.w3.org/2000/svg" viewBox="0 0 176.82684376568523 214.58124898892447" width="353.65368753137045" height="429.16249797784894">
  <!-- svg-source:excalidraw -->
  
  <defs>
    <style class="style-fonts">
      @font-face {
        font-family: "Virgil";
        src: url("https://excalidraw.com/Virgil.woff2");
      }
      @font-face {
        font-family: "Cascadia";
        src: url("https://excalidraw.com/Cascadia.woff2");
      }
    </style>
    
  </defs>
  <g stroke-linecap="round" transform="translate(10 11.588739512365692) rotate(0 42.88722619572445 47.14656772846479)"><path d="M21.44 0 C32.18 0, 42.91 0, 64.33 0 C78.63 0, 85.77 7.15, 85.77 21.44 C85.77 34.54, 85.77 47.63, 85.77 72.85 C85.77 87.15, 78.63 94.29, 64.33 94.29 C47.71 94.29, 31.09 94.29, 21.44 94.29 C7.15 94.29, 0 87.15, 0 72.85 C0 58.32, 0 43.78, 0 21.44 C0 7.15, 7.15 0, 21.44 0" stroke="none" stroke-width="0" fill="#1e1e1e"></path><path d="M21.44 0 C35.43 0, 49.42 0, 64.33 0 M21.44 0 C36.5 0, 51.55 0, 64.33 0 M64.33 0 C78.63 0, 85.77 7.15, 85.77 21.44 M64.33 0 C78.63 0, 85.77 7.15, 85.77 21.44 M85.77 21.44 C85.77 37.56, 85.77 53.67, 85.77 72.85 M85.77 21.44 C85.77 37.75, 85.77 54.06, 85.77 72.85 M85.77 72.85 C85.77 87.15, 78.63 94.29, 64.33 94.29 M85.77 72.85 C85.77 87.15, 78.63 94.29, 64.33 94.29 M64.33 94.29 C51.6 94.29, 38.87 94.29, 21.44 94.29 M64.33 94.29 C52.25 94.29, 40.16 94.29, 21.44 94.29 M21.44 94.29 C7.15 94.29, 0 87.15, 0 72.85 M21.44 94.29 C7.15 94.29, 0 87.15, 0 72.85 M0 72.85 C0 54.1, 0 35.35, 0 21.44 M0 72.85 C0 57.59, 0 42.34, 0 21.44 M0 21.44 C0 7.15, 7.15 0, 21.44 0 M0 21.44 C0 7.15, 7.15 0, 21.44 0" stroke="#1e1e1e" stroke-width="1" fill="none"></path></g><g stroke-linecap="round" transform="translate(10.587492872225994 169.9189398127653) rotate(0 74.75890080710496 17.331154588079585)"><path d="M8.67 0 C55.73 0, 102.79 0, 140.85 0 C146.63 0, 149.52 2.89, 149.52 8.67 C149.52 13.7, 149.52 18.74, 149.52 26 C149.52 31.77, 146.63 34.66, 140.85 34.66 C88.82 34.66, 36.8 34.66, 8.67 34.66 C2.89 34.66, 0 31.77, 0 26 C0 20.65, 0 15.31, 0 8.67 C0 2.89, 2.89 0, 8.67 0" stroke="none" stroke-width="0" fill="#1e1e1e"></path><path d="M8.67 0 C47.72 0, 86.78 0, 140.85 0 M8.67 0 C36.15 0, 63.64 0, 140.85 0 M140.85 0 C146.63 0, 149.52 2.89, 149.52 8.67 M140.85 0 C146.63 0, 149.52 2.89, 149.52 8.67 M149.52 8.67 C149.52 12.7, 149.52 16.74, 149.52 26 M149.52 8.67 C149.52 12.97, 149.52 17.27, 149.52 26 M149.52 26 C149.52 31.77, 146.63 34.66, 140.85 34.66 M149.52 26 C149.52 31.77, 146.63 34.66, 140.85 34.66 M140.85 34.66 C111.55 34.66, 82.25 34.66, 8.67 34.66 M140.85 34.66 C112.3 34.66, 83.75 34.66, 8.67 34.66 M8.67 34.66 C2.89 34.66, 0 31.77, 0 26 M8.67 34.66 C2.89 34.66, 0 31.77, 0 26 M0 26 C0 21.51, 0 17.02, 0 8.67 M0 26 C0 19.81, 0 13.61, 0 8.67 M0 8.67 C0 2.89, 2.89 0, 8.67 0 M0 8.67 C0 2.89, 2.89 0, 8.67 0" stroke="#1e1e1e" stroke-width="1" fill="none"></path></g><g stroke-linecap="round" transform="translate(10 68.28210703480704) rotate(0 18.212385492217436 66.68083039229282)"><path d="M9.11 0 C13.52 0, 17.93 0, 27.32 0 C33.39 0, 36.42 3.04, 36.42 9.11 C36.42 34.66, 36.42 60.22, 36.42 124.26 C36.42 130.33, 33.39 133.36, 27.32 133.36 C22.54 133.36, 17.77 133.36, 9.11 133.36 C3.04 133.36, 0 130.33, 0 124.26 C0 100.16, 0 76.07, 0 9.11 C0 3.04, 3.04 0, 9.11 0" stroke="none" stroke-width="0" fill="#1e1e1e"></path><path d="M9.11 0 C15.79 0, 22.47 0, 27.32 0 M9.11 0 C14.73 0, 20.36 0, 27.32 0 M27.32 0 C33.39 0, 36.42 3.04, 36.42 9.11 M27.32 0 C33.39 0, 36.42 3.04, 36.42 9.11 M36.42 9.11 C36.42 42.4, 36.42 75.68, 36.42 124.26 M36.42 9.11 C36.42 35.43, 36.42 61.75, 36.42 124.26 M36.42 124.26 C36.42 130.33, 33.39 133.36, 27.32 133.36 M36.42 124.26 C36.42 130.33, 33.39 133.36, 27.32 133.36 M27.32 133.36 C20.58 133.36, 13.84 133.36, 9.11 133.36 M27.32 133.36 C22.56 133.36, 17.79 133.36, 9.11 133.36 M9.11 133.36 C3.04 133.36, 0 130.33, 0 124.26 M9.11 133.36 C3.04 133.36, 0 130.33, 0 124.26 M0 124.26 C0 98.61, 0 72.97, 0 9.11 M0 124.26 C0 96.43, 0 68.61, 0 9.11 M0 9.11 C0 3.04, 3.04 0, 9.11 0 M0 9.11 C0 3.04, 3.04 0, 9.11 0" stroke="#1e1e1e" stroke-width="1" fill="none"></path></g><g stroke-linecap="round" transform="translate(43.78103344961528 128.206749786699) rotate(0 60.218369578202555 8.665554882837114)"><path d="M4.33 0 C45 0, 85.67 0, 116.1 0 C118.99 0, 120.44 1.44, 120.44 4.33 C120.44 7.73, 120.44 11.13, 120.44 13 C120.44 15.89, 118.99 17.33, 116.1 17.33 C87.47 17.33, 58.83 17.33, 4.33 17.33 C1.44 17.33, 0 15.89, 0 13 C0 10.08, 0 7.16, 0 4.33 C0 1.44, 1.44 0, 4.33 0" stroke="none" stroke-width="0" fill="#1e1e1e"></path><path d="M4.33 0 C43.71 0, 83.09 0, 116.1 0 M4.33 0 C29.32 0, 54.3 0, 116.1 0 M116.1 0 C118.99 0, 120.44 1.44, 120.44 4.33 M116.1 0 C118.99 0, 120.44 1.44, 120.44 4.33 M120.44 4.33 C120.44 6.3, 120.44 8.26, 120.44 13 M120.44 4.33 C120.44 6.27, 120.44 8.2, 120.44 13 M120.44 13 C120.44 15.89, 118.99 17.33, 116.1 17.33 M120.44 13 C120.44 15.89, 118.99 17.33, 116.1 17.33 M116.1 17.33 C78.29 17.33, 40.48 17.33, 4.33 17.33 M116.1 17.33 C75.84 17.33, 35.58 17.33, 4.33 17.33 M4.33 17.33 C1.44 17.33, 0 15.89, 0 13 M4.33 17.33 C1.44 17.33, 0 15.89, 0 13 M0 13 C0 11.07, 0 9.15, 0 4.33 M0 13 C0 10.83, 0 8.67, 0 4.33 M0 4.33 C0 1.44, 1.44 0, 4.33 0 M0 4.33 C0 1.44, 1.44 0, 4.33 0" stroke="#1e1e1e" stroke-width="1" fill="none"></path></g><g stroke-linecap="round" transform="translate(35.55609962164817 79.44454444350936) rotate(0 64.62456892129762 13.365548285850878)"><path d="M6.68 0 C44.23 0, 81.79 0, 122.57 0 C127.02 0, 129.25 2.23, 129.25 6.68 C129.25 9.95, 129.25 13.21, 129.25 20.05 C129.25 24.5, 127.02 26.73, 122.57 26.73 C82.89 26.73, 43.21 26.73, 6.68 26.73 C2.23 26.73, 0 24.5, 0 20.05 C0 16.23, 0 12.4, 0 6.68 C0 2.23, 2.23 0, 6.68 0" stroke="none" stroke-width="0" fill="#1e1e1e"></path><path d="M6.68 0 C51.54 0, 96.41 0, 122.57 0 M6.68 0 C51.04 0, 95.4 0, 122.57 0 M122.57 0 C127.02 0, 129.25 2.23, 129.25 6.68 M122.57 0 C127.02 0, 129.25 2.23, 129.25 6.68 M129.25 6.68 C129.25 10.28, 129.25 13.88, 129.25 20.05 M129.25 6.68 C129.25 9.39, 129.25 12.1, 129.25 20.05 M129.25 20.05 C129.25 24.5, 127.02 26.73, 122.57 26.73 M129.25 20.05 C129.25 24.5, 127.02 26.73, 122.57 26.73 M122.57 26.73 C81.1 26.73, 39.64 26.73, 6.68 26.73 M122.57 26.73 C99.06 26.73, 75.55 26.73, 6.68 26.73 M6.68 26.73 C2.23 26.73, 0 24.5, 0 20.05 M6.68 26.73 C2.23 26.73, 0 24.5, 0 20.05 M0 20.05 C0 17.17, 0 14.29, 0 6.68 M0 20.05 C0 15.05, 0 10.04, 0 6.68 M0 6.68 C0 2.23, 2.23 0, 6.68 0 M0 6.68 C0 2.23, 2.23 0, 6.68 0" stroke="#1e1e1e" stroke-width="1" fill="none"></path></g><g stroke-linecap="round" transform="translate(127.20549194095793 82.38202561304092) rotate(0 18.799883967244114 58.45587415312275)"><path d="M9.4 0 C15.84 0, 22.27 0, 28.2 0 C34.47 0, 37.6 3.13, 37.6 9.4 C37.6 43.77, 37.6 78.14, 37.6 107.51 C37.6 113.78, 34.47 116.91, 28.2 116.91 C23.3 116.91, 18.41 116.91, 9.4 116.91 C3.13 116.91, 0 113.78, 0 107.51 C0 75.72, 0 43.93, 0 9.4 C0 3.13, 3.13 0, 9.4 0" stroke="none" stroke-width="0" fill="#1e1e1e"></path><path d="M9.4 0 C16.88 0, 24.36 0, 28.2 0 M9.4 0 C15.24 0, 21.08 0, 28.2 0 M28.2 0 C34.47 0, 37.6 3.13, 37.6 9.4 M28.2 0 C34.47 0, 37.6 3.13, 37.6 9.4 M37.6 9.4 C37.6 47.57, 37.6 85.74, 37.6 107.51 M37.6 9.4 C37.6 46.03, 37.6 82.65, 37.6 107.51 M37.6 107.51 C37.6 113.78, 34.47 116.91, 28.2 116.91 M37.6 107.51 C37.6 113.78, 34.47 116.91, 28.2 116.91 M28.2 116.91 C21.35 116.91, 14.5 116.91, 9.4 116.91 M28.2 116.91 C23.3 116.91, 18.4 116.91, 9.4 116.91 M9.4 116.91 C3.13 116.91, 0 113.78, 0 107.51 M9.4 116.91 C3.13 116.91, 0 113.78, 0 107.51 M0 107.51 C0 85.9, 0 64.28, 0 9.4 M0 107.51 C0 74.95, 0 42.39, 0 9.4 M0 9.4 C0 3.13, 3.13 0, 9.4 0 M0 9.4 C0 3.13, 3.13 0, 9.4 0" stroke="#1e1e1e" stroke-width="1" fill="none"></path></g><g stroke-linecap="round" transform="translate(87.5243552890206 37.168407281558984) rotate(44.236105618246235 42.572745191883314 8.926964858704423)"><path d="M4.46 0 C29.14 0, 53.82 0, 80.68 0 C83.66 0, 85.15 1.49, 85.15 4.46 C85.15 6.65, 85.15 8.83, 85.15 13.39 C85.15 16.37, 83.66 17.85, 80.68 17.85 C50.82 17.85, 20.95 17.85, 4.46 17.85 C1.49 17.85, 0 16.37, 0 13.39 C0 11.38, 0 9.38, 0 4.46 C0 1.49, 1.49 0, 4.46 0" stroke="none" stroke-width="0" fill="#1e1e1e"></path><path d="M4.46 0 C32.77 0, 61.07 0, 80.68 0 M4.46 0 C23.89 0, 43.31 0, 80.68 0 M80.68 0 C83.66 0, 85.15 1.49, 85.15 4.46 M80.68 0 C83.66 0, 85.15 1.49, 85.15 4.46 M85.15 4.46 C85.15 7.8, 85.15 11.14, 85.15 13.39 M85.15 4.46 C85.15 6.34, 85.15 8.22, 85.15 13.39 M85.15 13.39 C85.15 16.37, 83.66 17.85, 80.68 17.85 M85.15 13.39 C85.15 16.37, 83.66 17.85, 80.68 17.85 M80.68 17.85 C60.4 17.85, 40.11 17.85, 4.46 17.85 M80.68 17.85 C64.21 17.85, 47.74 17.85, 4.46 17.85 M4.46 17.85 C1.49 17.85, 0 16.37, 0 13.39 M4.46 17.85 C1.49 17.85, 0 16.37, 0 13.39 M0 13.39 C0 9.96, 0 6.52, 0 4.46 M0 13.39 C0 9.87, 0 6.35, 0 4.46 M0 4.46 C0 1.49, 1.49 0, 4.46 0 M0 4.46 C0 1.49, 1.49 0, 4.46 0" stroke="#1e1e1e" stroke-width="1" fill="none"></path></g><g transform="translate(161.3069924719689 70.1388490515235) rotate(0 -0.2662239754140501 6.123090501312163)" stroke="none"><path d="M0 0 C-0.12 2.04, -0.74 11.8, -0.71 12.25 C-0.68 12.69, 0.03 4.26, 0.18 2.66" stroke="none" stroke-width="0" fill="#1e1e1e" fill-rule="evenodd"></path><path fill="#1e1e1e" d="M 2.64,0.12 Q 2.64,0.12 2.61,1.24 2.58,2.36 2.55,3.91 2.51,5.46 2.41,6.65 2.31,7.84 2.35,9.05 2.39,10.26 2.50,11.22 2.61,12.18 2.56,12.57 2.51,12.96 2.38,13.32 2.24,13.68 2.02,14.00 1.80,14.32 1.51,14.58 1.22,14.83 0.87,15.01 0.53,15.19 0.15,15.29 -0.22,15.38 -0.60,15.38 -0.99,15.38 -1.37,15.29 -1.75,15.19 -2.09,15.01 -2.43,14.83 -2.72,14.57 -3.01,14.32 -3.23,14.00 -3.45,13.68 -3.59,13.32 -3.73,12.95 -3.78,12.57 -3.82,12.18 -3.77,10.60 -3.72,9.02 -3.68,7.45 -3.64,5.88 -3.42,3.92 -3.20,1.97 -2.98,1.45 -2.76,0.94 -2.39,0.53 -2.01,0.11 -1.53,-0.16 -1.04,-0.43 -0.50,-0.54 0.04,-0.64 0.59,-0.57 1.15,-0.49 1.64,-0.25 2.14,-0.00 2.54,0.38 2.93,0.78 3.18,1.28 3.43,1.77 3.51,2.33 3.58,2.88 3.48,3.43 3.38,3.97 3.10,4.46 2.83,4.95 2.41,5.32 2.00,5.69 1.49,5.91 0.98,6.13 0.42,6.18 -0.12,6.23 -0.67,6.09 -1.21,5.96 -1.68,5.66 -2.15,5.36 -2.50,4.93 -2.85,4.49 -3.04,3.97 -3.23,3.45 -3.25,2.89 -3.27,2.33 -3.10,1.80 -2.94,1.27 -2.62,0.81 -2.29,0.36 -1.84,0.03 -1.39,-0.28 -0.85,-0.45 -0.32,-0.61 0.23,-0.60 0.78,-0.58 1.31,-0.39 1.83,-0.20 2.27,0.14 2.70,0.49 3.00,0.96 3.30,1.42 3.44,1.97 3.57,2.51 3.53,3.06 3.48,3.62 3.48,3.62 3.48,3.62 3.25,5.76 3.01,7.90 2.93,8.97 2.86,10.05 2.73,11.11 2.61,12.18 2.56,12.57 2.51,12.95 2.38,13.32 2.24,13.68 2.02,14.00 1.80,14.32 1.51,14.58 1.22,14.83 0.87,15.01 0.53,15.19 0.15,15.29 -0.22,15.38 -0.60,15.38 -0.99,15.38 -1.37,15.29 -1.75,15.19 -2.09,15.01 -2.43,14.83 -2.72,14.57 -3.01,14.32 -3.23,14.00 -3.45,13.68 -3.59,13.32 -3.73,12.95 -3.78,12.57 -3.82,12.18 -3.62,12.64 -3.42,13.10 -3.63,11.97 -3.83,10.84 -3.74,9.54 -3.65,8.24 -3.39,6.72 -3.13,5.21 -2.96,3.66 -2.79,2.12 -2.71,1.00 -2.64,-0.12 -2.59,-0.43 -2.54,-0.75 -2.41,-1.04 -2.28,-1.33 -2.09,-1.59 -1.90,-1.84 -1.65,-2.04 -1.40,-2.24 -1.11,-2.38 -0.82,-2.51 -0.51,-2.58 -0.19,-2.64 0.11,-2.62 0.43,-2.61 0.74,-2.52 1.05,-2.43 1.32,-2.27 1.60,-2.11 1.83,-1.88 2.06,-1.66 2.23,-1.39 2.40,-1.12 2.50,-0.82 2.60,-0.51 2.62,-0.19 2.64,0.12 2.64,0.12 L 2.64,0.12 Z"></path></g><g transform="translate(161.66194874537814 72.26862054376556) rotate(0 0.17748490706162556 9.672704013084854)" stroke="none"><path fill="#1e1e1e" d="M 2.38,-0.65 Q 2.38,-0.65 2.58,-0.10 2.78,0.44 3.11,1.66 3.44,2.88 3.64,3.99 3.84,5.10 3.93,6.29 4.02,7.48 4.08,8.66 4.15,9.84 3.96,10.90 3.77,11.97 3.24,12.90 2.71,13.84 3.11,13.66 3.51,13.48 3.44,13.89 3.38,14.29 3.21,14.67 3.05,15.06 2.80,15.39 2.55,15.72 2.23,15.98 1.91,16.24 1.53,16.42 1.16,16.59 0.75,16.68 0.35,16.76 -0.06,16.74 -0.47,16.72 -0.87,16.61 -1.27,16.49 -1.62,16.29 -1.98,16.08 -2.28,15.79 -2.58,15.50 -2.80,15.15 -3.02,14.80 -3.15,14.41 -3.28,14.02 -3.31,13.60 -3.35,13.19 -3.50,12.01 -3.66,10.83 -3.69,9.76 -3.72,8.68 -3.74,7.32 -3.76,5.95 -3.79,4.74 -3.81,3.52 -3.84,2.45 -3.86,1.38 -3.70,0.00 -3.54,-1.37 -3.00,-2.40 -2.46,-3.44 -0.47,-3.55 1.52,-3.66 2.70,-2.83 3.89,-1.99 4.17,-0.80 4.46,0.38 4.47,1.49 4.49,2.60 4.47,3.75 4.45,4.91 4.40,5.99 4.36,7.08 4.08,8.54 3.81,10.01 3.46,11.63 3.11,13.25 3.40,13.32 3.70,13.39 3.63,13.86 3.57,14.32 3.40,14.76 3.23,15.19 2.96,15.57 2.68,15.95 2.33,16.26 1.97,16.56 1.56,16.77 1.14,16.98 0.68,17.09 0.23,17.20 -0.23,17.19 -0.70,17.18 -1.15,17.06 -1.60,16.94 -2.01,16.72 -2.42,16.50 -2.77,16.18 -3.11,15.87 -3.37,15.48 -3.63,15.09 -3.79,14.65 -3.95,14.21 -4.00,13.74 -4.05,13.28 -4.14,12.14 -4.23,11.01 -4.23,9.65 -4.22,8.30 -4.22,7.23 -4.22,6.17 -4.22,4.93 -4.22,3.69 -4.22,2.56 -4.22,1.43 -4.22,0.34 -4.23,-0.75 -4.23,-1.09 -4.23,-1.43 -4.18,-1.89 -4.12,-2.36 -3.95,-2.80 -3.79,-3.23 -3.52,-3.62 -3.26,-4.00 -2.91,-4.31 -2.56,-4.62 -2.14,-4.84 -1.73,-5.06 -1.27,-5.17 -0.82,-5.28 -0.35,-5.28 0.11,-5.28 0.56,-5.17 1.02,-5.06 1.43,-4.84 1.85,-4.62 2.20,-4.31 2.55,-4.00 2.81,-3.62 3.08,-3.23 3.24,-2.80 3.41,-2.36 3.47,-1.89 3.52,-1.43 3.14,-2.53 2.75,-3.64 3.21,-2.42 3.67,-1.20 3.69,-0.05 3.71,1.09 3.72,2.21 3.72,3.34 3.72,4.56 3.73,5.78 3.83,6.61 3.93,7.44 3.88,7.90 3.82,8.37 3.65,8.81 3.49,9.25 3.22,9.64 2.95,10.03 2.60,10.34 2.24,10.66 1.83,10.87 1.41,11.09 0.95,11.21 0.49,11.32 0.02,11.32 -0.44,11.32 -0.90,11.21 -1.36,11.09 -1.77,10.87 -2.19,10.66 -2.54,10.34 -2.90,10.03 -3.17,9.64 -3.43,9.25 -3.60,8.81 -3.77,8.37 -3.82,7.90 -3.88,7.44 -3.89,6.22 -3.90,5.00 -3.90,3.86 -3.91,2.72 -3.91,1.60 -3.91,0.48 -3.55,-1.30 -3.18,-3.09 -2.40,-3.97 -1.62,-4.84 0.23,-4.68 2.09,-4.52 3.33,-3.47 4.56,-2.42 4.69,-1.28 4.81,-0.15 4.81,0.92 4.82,1.99 4.82,3.13 4.82,4.27 4.82,5.38 4.82,6.49 4.82,7.68 4.82,8.87 4.82,10.06 4.82,11.24 4.49,13.04 4.16,14.83 4.01,16.26 3.86,17.68 3.63,19.32 3.40,20.95 3.29,21.57 3.17,22.20 2.87,22.76 2.56,23.32 2.09,23.75 1.61,24.18 1.03,24.43 0.45,24.69 -0.18,24.75 -0.81,24.81 -1.43,24.66 -2.05,24.51 -2.59,24.17 -3.13,23.83 -3.54,23.34 -3.94,22.85 -4.16,22.25 -4.39,21.65 -4.41,21.02 -4.43,20.38 -4.25,19.77 -4.07,19.16 -3.70,18.64 -3.34,18.11 -2.82,17.74 -2.31,17.36 -1.70,17.17 -1.09,16.98 -0.45,16.99 0.17,17.00 0.77,17.21 1.37,17.43 1.87,17.82 2.37,18.22 2.72,18.75 3.07,19.29 3.23,19.90 3.39,20.52 3.34,21.16 3.30,21.79 3.05,22.38 2.80,22.97 2.38,23.45 1.96,23.93 1.41,24.24 0.85,24.56 0.23,24.69 -0.39,24.81 -1.02,24.73 -1.65,24.65 -2.22,24.37 -2.80,24.10 -3.25,23.65 -3.71,23.20 -3.99,22.63 -4.28,22.06 -4.37,21.43 -4.47,20.80 -4.47,20.80 -4.47,20.80 -4.15,18.46 -3.83,16.11 -3.61,14.94 -3.40,13.78 -3.21,12.65 -3.02,11.51 -3.04,10.34 -3.05,9.18 -3.05,8.06 -3.05,6.94 -3.05,5.85 -3.05,4.75 -3.04,3.60 -3.04,2.45 -2.96,1.25 -2.87,0.05 -1.88,0.72 -0.90,1.38 1.50,0.93 3.91,0.48 3.91,1.60 3.91,2.72 3.91,3.85 3.91,4.97 3.92,6.20 3.93,7.44 3.88,7.90 3.82,8.37 3.65,8.81 3.49,9.25 3.22,9.64 2.95,10.03 2.60,10.34 2.24,10.66 1.83,10.87 1.41,11.09 0.95,11.21 0.49,11.32 0.02,11.32 -0.44,11.32 -0.90,11.21 -1.36,11.09 -1.77,10.87 -2.19,10.66 -2.54,10.34 -2.90,10.03 -3.16,9.64 -3.43,9.25 -3.60,8.81 -3.77,8.37 -3.82,7.90 -3.88,7.44 -3.89,7.57 -3.90,7.70 -3.99,6.57 -4.08,5.44 -4.08,4.25 -4.08,3.06 -3.67,2.02 -3.25,0.99 -3.74,-0.21 -4.23,-1.43 -4.18,-1.89 -4.12,-2.36 -3.95,-2.80 -3.79,-3.23 -3.52,-3.62 -3.26,-4.00 -2.91,-4.31 -2.56,-4.62 -2.14,-4.84 -1.73,-5.06 -1.27,-5.17 -0.82,-5.28 -0.35,-5.28 0.11,-5.28 0.56,-5.17 1.02,-5.06 1.43,-4.84 1.85,-4.62 2.20,-4.31 2.55,-4.00 2.81,-3.62 3.08,-3.23 3.24,-2.80 3.41,-2.36 3.47,-1.89 3.52,-1.43 3.52,-1.09 3.52,-0.75 3.51,0.34 3.51,1.43 3.51,2.56 3.51,3.69 3.51,4.93 3.51,6.17 3.51,7.23 3.51,8.30 3.23,9.62 2.95,10.93 3.32,12.16 3.70,13.39 3.63,13.86 3.57,14.32 3.40,14.76 3.23,15.19 2.96,15.57 2.68,15.95 2.33,16.26 1.98,16.56 1.56,16.77 1.14,16.98 0.68,17.09 0.23,17.20 -0.23,17.19 -0.70,17.18 -1.15,17.06 -1.60,16.94 -2.01,16.72 -2.42,16.50 -2.77,16.18 -3.11,15.87 -3.37,15.48 -3.63,15.09 -3.79,14.65 -3.95,14.21 -4.00,13.74 -4.05,13.28 -4.05,13.18 -4.05,13.08 -3.92,11.92 -3.78,10.75 -3.62,9.58 -3.46,8.41 -3.37,7.15 -3.27,5.88 -3.18,4.68 -3.08,3.48 -2.99,2.29 -2.90,1.10 -1.98,1.69 -1.05,2.27 0.01,2.59 1.08,2.91 2.29,2.15 3.51,1.38 3.48,2.45 3.46,3.52 3.43,4.73 3.41,5.95 3.39,7.31 3.36,8.67 3.33,9.93 3.30,11.18 3.40,12.33 3.51,13.48 3.44,13.88 3.38,14.29 3.21,14.67 3.05,15.06 2.80,15.39 2.55,15.72 2.23,15.98 1.91,16.24 1.54,16.42 1.16,16.59 0.75,16.68 0.35,16.76 -0.06,16.74 -0.47,16.72 -0.87,16.61 -1.26,16.49 -1.62,16.29 -1.98,16.08 -2.28,15.79 -2.58,15.50 -2.80,15.15 -3.02,14.80 -3.15,14.41 -3.28,14.02 -3.31,13.60 -3.35,13.19 -3.16,12.27 -2.97,11.35 -2.64,9.93 -2.31,8.52 -2.23,7.40 -2.16,6.29 -2.07,5.19 -1.98,4.09 -2.07,2.94 -2.17,1.79 -2.27,1.22 -2.38,0.65 -2.42,0.35 -2.46,0.06 -2.44,-0.23 -2.41,-0.53 -2.31,-0.81 -2.21,-1.09 -2.05,-1.34 -1.88,-1.59 -1.67,-1.79 -1.45,-1.99 -1.19,-2.14 -0.93,-2.28 -0.64,-2.36 -0.35,-2.44 -0.06,-2.45 0.23,-2.45 0.52,-2.39 0.81,-2.33 1.08,-2.19 1.35,-2.06 1.58,-1.87 1.80,-1.68 1.98,-1.44 2.15,-1.20 2.27,-0.92 2.38,-0.64 2.38,-0.64 L 2.38,-0.65 Z"></path></g><g stroke-linecap="round" transform="translate(61.66136580997636 11.603576659196506) rotate(0 22.54372571509998 5.75506730103848)"><path d="M2.88 0 C11.53 0, 20.19 0, 42.21 0 C44.13 0, 45.09 0.96, 45.09 2.88 C45.09 4.48, 45.09 6.09, 45.09 8.63 C45.09 10.55, 44.13 11.51, 42.21 11.51 C28.59 11.51, 14.98 11.51, 2.88 11.51 C0.96 11.51, 0 10.55, 0 8.63 C0 7.06, 0 5.49, 0 2.88 C0 0.96, 0.96 0, 2.88 0" stroke="none" stroke-width="0" fill="#1e1e1e"></path><path d="M2.88 0 C14.21 0, 25.53 0, 42.21 0 M2.88 0 C17.88 0, 32.88 0, 42.21 0 M42.21 0 C44.13 0, 45.09 0.96, 45.09 2.88 M42.21 0 C44.13 0, 45.09 0.96, 45.09 2.88 M45.09 2.88 C45.09 4.59, 45.09 6.31, 45.09 8.63 M45.09 2.88 C45.09 4.82, 45.09 6.76, 45.09 8.63 M45.09 8.63 C45.09 10.55, 44.13 11.51, 42.21 11.51 M45.09 8.63 C45.09 10.55, 44.13 11.51, 42.21 11.51 M42.21 11.51 C31.78 11.51, 21.34 11.51, 2.88 11.51 M42.21 11.51 C29.44 11.51, 16.66 11.51, 2.88 11.51 M2.88 11.51 C0.96 11.51, 0 10.55, 0 8.63 M2.88 11.51 C0.96 11.51, 0 10.55, 0 8.63 M0 8.63 C0 6.99, 0 5.34, 0 2.88 M0 8.63 C0 6.81, 0 5, 0 2.88 M0 2.88 C0 0.96, 0.96 0, 2.88 0 M0 2.88 C0 0.96, 0.96 0, 2.88 0" stroke="#1e1e1e" stroke-width="1" fill="none"></path></g></svg>