<svg xmlns="http://www.w3.org/2000/svg" xmlns:xlink="http://www.w3.org/1999/xlink" version="1.1" x="0px" y="0px" viewBox="0 0 65 65" xml:space="preserve"><g><path d="M61.5,0.5H23.6c-2.1,0-3.8,1.7-3.8,3.7v5.3H3.5c-2.1,0-3.8,1.7-3.8,3.8v47.5c0,2.1,1.7,3.7,3.8,3.7h37.9   c2.1,0,3.8-1.7,3.8-3.7v-5.3h16.3c2.1,0,3.8-1.7,3.8-3.8V4.2C65.3,2.2,63.6,0.5,61.5,0.5z M63.8,51.8c0,1.2-1,2.3-2.3,2.3H23.6   c-1.2,0-2.3-1-2.3-2.3v-1.4h-1.5v1.4c0,2.1,1.7,3.8,3.8,3.8h20.1v5.3c0,1.2-1,2.3-2.3,2.3H3.5c-1.2,0-2.3-1-2.3-2.3V13.2   c0-1.2,1-2.3,2.3-2.3h16.3v18h1.5V4.2c0-1.2,1-2.2,2.3-2.2h37.9c1.2,0,2.3,1,2.3,2.2V51.8z"/><rect x="25.8" y="8" width="33.5" height="1.5"/><rect x="25.8" y="16" width="33.5" height="1.5"/><rect x="25.8" y="24" width="33.5" height="1.5"/><rect x="36.9" y="32" width="22.4" height="1.5"/><rect x="42.5" y="39.9" width="16.8" height="1.5"/><polygon points="27.2,35.6 31.3,39.6 27.2,43.5 28.2,44.6 33.5,39.6 28.2,34.6  "/><polygon points="13.9,34.6 8.6,39.6 13.9,44.6 14.9,43.5 10.8,39.6 14.9,35.6  "/><rect x="20.3" y="29.7" transform="matrix(-0.8966 -0.4428 0.4428 -0.8966 22.4337 84.3531)" width="1.5" height="19.7"/></g></svg>