<?xml version="1.0" encoding="UTF-8" standalone="no"?>
<svg
   width="168.60547pt"
   height="206.36328pt"
   viewBox="0 0 168.60546 206.36328"
   version="1.1"
   id="svg61"
   sodipodi:docname="UMONS_FS-logo.svg"
   inkscape:version="1.3 (0e150ed6c4, 2023-07-21)"
   xmlns:inkscape="http://www.inkscape.org/namespaces/inkscape"
   xmlns:sodipodi="http://sodipodi.sourceforge.net/DTD/sodipodi-0.dtd"
   xmlns="http://www.w3.org/2000/svg"
   xmlns:svg="http://www.w3.org/2000/svg">
  <sodipodi:namedview
     id="namedview63"
     pagecolor="#ffffff"
     bordercolor="#000000"
     borderopacity="0.25"
     inkscape:showpageshadow="2"
     inkscape:pageopacity="0.0"
     inkscape:pagecheckerboard="0"
     inkscape:deskcolor="#d1d1d1"
     inkscape:document-units="pt"
     showgrid="false"
     inkscape:zoom="1.7088241"
     inkscape:cx="342.04808"
     inkscape:cy="185.50768"
     inkscape:window-width="1920"
     inkscape:window-height="1128"
     inkscape:window-x="0"
     inkscape:window-y="0"
     inkscape:window-maximized="1"
     inkscape:current-layer="surface1" />
  <defs
     id="defs8">
    <rect
       x="283.48669"
       y="50.28334"
       width="360.0195"
       height="158.14014"
       id="rect378" />
    <clipPath
       id="clip1">
      <path
         d="m 287,173 h 27 v 34.16016 h -27 z m 0,0"
         id="path2" />
    </clipPath>
    <clipPath
       id="clip2">
      <path
         d="m 448,182 h 20.69922 v 25 H 448 Z m 0,0"
         id="path5" />
    </clipPath>
  </defs>
  <g
     id="surface1"
     style="display:inline">
    <g
       id="g1">
      <path
         style="fill:#c20c3d;fill-opacity:1;fill-rule:evenodd;stroke:none"
         d="M 5.589844,189.84766 H 162.26953 v 16.51562 H 5.589844 v -16.51562"
         id="path10" />
      <path
         style="fill:#8f8f8f;fill-opacity:1;fill-rule:nonzero;stroke:none"
         d="m 36.976562,68.386719 c 0,0 12.84375,38.660161 22.890626,68.910151 C 65.875,99.015625 75.636719,36.820312 75.636719,36.820312 c 0.644531,-4.105468 4.160156,-7.140624 8.3125,-7.183593 l 63.957031,-0.625 C 132.45312,11.246094 109.69531,0 84.300781,0 45.234375,0 12.386719,26.578125 2.824219,62.636719 l 26.066406,-0.07031 c 3.667969,-0.0078 6.929687,2.339844 8.085937,5.820313"
         id="path12" />
      <path
         style="fill:#8f8f8f;fill-opacity:1;fill-rule:nonzero;stroke:none"
         d="M 0.132812,79.644531 C 0.0507812,81.1875 0,82.738281 0,84.304688 0,118.60938 20.507812,148.10937 49.917969,161.27344 41.617188,136.28125 25.335938,87.261719 22.78125,79.585938 c -4.605469,0.01172 -14.25,0.03516 -22.648438,0.05859"
         id="path14" />
      <path
         style="fill:#8f8f8f;fill-opacity:1;fill-rule:nonzero;stroke:none"
         d="M 91.316406,46.566406 C 89.605469,57.457031 76.199219,142.88672 72.296875,167.73828 c 3.921875,0.5625 7.925781,0.86719 12.003906,0.86719 46.558589,0 84.304689,-37.7461 84.304689,-84.300782 0,-13.839844 -3.35547,-26.886719 -9.26563,-38.40625 -26.05468,0.253906 -60.468746,0.59375 -68.023434,0.667968"
         id="path16" />
      <path
         style="fill:#ffffff;fill-opacity:1;fill-rule:nonzero;stroke:none"
         d="m 159.33984,45.898438 c -3.1289,-6.097657 -6.97265,-11.761719 -11.43359,-16.886719 l -63.957031,0.625 c -4.152344,0.04297 -7.667969,3.078125 -8.3125,7.183593 0,0 -9.761719,62.195313 -15.769531,100.476558 C 49.820312,107.04688 36.976562,68.386719 36.976562,68.386719 35.820312,64.90625 32.558594,62.558594 28.890625,62.566406 l -26.066406,0.07031 c -1.453125,5.472656 -2.371094,11.160156 -2.691407,17.007812 8.398438,-0.02344 18.042969,-0.04687 22.648438,-0.05859 2.554688,7.675781 18.835938,56.695312 27.136719,81.687502 7.007812,3.13281 14.515625,5.34375 22.378906,6.46484 3.902344,-24.85156 17.308594,-110.281249 19.019531,-121.171874 7.554688,-0.07422 41.968754,-0.414062 68.023434,-0.667968"
         id="path18" />
    </g>
  </g>
</svg>
